<?xml version="1.0" encoding="UTF-8"?>
<svg xmlns="http://www.w3.org/2000/svg" version="1.1" viewBox="0 0 1240 1240">
  <defs>
    <style>
      .st0 {
        fill: #615bdd;
      }
      .st1 {
        fill: #11183f;
      }
    </style>
  </defs>
  <!-- Background with rounded corners and margin -->
  <rect class="st1" x="120" y="120" width="1000" height="1000" rx="200" ry="200"/>
  <!-- CDP paths -->
  <path class="st0" d="M404,656l78,23.6c-5.2,21.9-13.5,40.2-24.8,54.8-11.3,14.7-25.3,25.7-42,33.2-16.7,7.5-38,11.2-63.8,11.2s-56.9-4.6-76.7-13.6c-19.8-9.1-37-25.1-51.4-48-14.4-22.9-21.6-52.2-21.6-88s12.7-84.3,38-109.9,61.2-38.4,107.6-38.4,64.8,7.3,85.6,22c20.8,14.7,36.2,37.2,46.3,67.6l-78.6,17.5c-2.8-8.8-5.6-15.2-8.6-19.3-5-6.8-11.1-12.1-18.3-15.7-7.2-3.7-15.3-5.5-24.2-5.5-20.2,0-35.6,8.1-46.4,24.3-8.1,12-12.2,30.9-12.2,56.7s4.8,53.8,14.5,65.7c9.7,11.8,23.3,17.8,40.9,17.8s29.9-4.8,38.6-14.3c8.7-9.6,15-23.5,19-41.7Z"/>
  <path class="st0" d="M503.3,485.8h132.3c26.1,0,47.1,3.5,63.2,10.6,16,7.1,29.3,17.2,39.8,30.5,10.5,13.2,18.1,28.6,22.8,46.2,4.7,17.6,7.1,36.2,7.1,55.8,0,30.8-3.5,54.7-10.5,71.6-7,17-16.7,31.2-29.2,42.6-12.4,11.5-25.8,19.1-40.1,22.9-19.5,5.2-37.2,7.9-53.1,7.9h-132.3v-288.1ZM592.4,551.1v157.4h21.8c18.6,0,31.8-2.1,39.7-6.2,7.9-4.1,14-11.3,18.5-21.6,4.5-10.3,6.7-27,6.7-50s-5-51.4-14.9-62.7c-10-11.3-26.5-16.9-49.5-16.9h-22.2Z"/>
  <path class="st0" d="M797.7,485.8h148c32.2,0,56.4,7.7,72.4,23,16,15.3,24.1,37.1,24.1,65.4s-8.7,51.8-26.2,68.2c-17.5,16.4-44.2,24.6-80.1,24.6h-48.7v106.9h-89.4v-288.1ZM887.1,608.6h21.8c17.2,0,29.2-3,36.2-8.9,6.9-6,10.4-13.6,10.4-22.9s-3-16.7-9-23c-6-6.3-17.4-9.4-34-9.4h-25.4v64.3Z"/>
</svg>