<?xml version="1.0" encoding="UTF-8"?>
<svg id="Layer_1" xmlns="http://www.w3.org/2000/svg" version="1.1" viewBox="0 0 1240 1240">
  <!-- Generator: Adobe Illustrator 29.7.1, SVG Export Plug-In . SVG Version: 2.1.1 Build 8)  -->
  <defs>
    <style>
      .st0 {
        fill: #f3ff00;
      }

      .st1 {
        fill: #4f4f00;
      }
    </style>
  </defs>
  <rect class="st1" x="120" y="120" width="1000" height="1000" rx="200" ry="200"/>
  <g>
    <path class="st0" d="M258,560.4h32.6v17.7h.6c11.1-13.2,25.6-19.8,43.7-19.8,11.6.2,21,2.2,28.1,6,7,4.2,13.4,9.5,19.2,16,13.1-14.8,30.7-22.1,52.7-21.9,13.9,0,26.6,4.9,38.1,14.7,11.4,9.9,17.3,24.4,17.7,43.5v111.3h-32.6v-99.8c0-11.7-3.1-20.7-9.4-26.8-6.2-6.2-14.3-9.4-24.1-9.4s-17.9,3.1-24.3,9.4c-6.5,6.1-9.7,15.1-9.7,26.8v99.8h-32.5v-99.8c0-11.7-3.1-20.7-9.4-26.8-6.3-6.2-14.4-9.4-24.3-9.4s-17.9,3.1-24.1,9.4c-6.6,6.1-9.8,15.1-9.8,26.8v99.8h-32.6v-167.4Z"/>
    <path class="st0" d="M563.7,591.9h11.2c11.2,0,19.8-3.2,26-9.6,6.2-6.2,9.2-14.2,9.2-24-.2-9.9-3.4-18.1-9.5-24.5-6.2-6.2-14.1-9.3-23.8-9.6-7,0-13.3,2.3-19.1,7-6,4.6-10.1,11.8-12.2,21.6h-32.7c1.7-17.4,8.5-32.1,20.5-44,11.8-11.8,25.8-17.8,42.2-18.1,20.7.2,37.2,7,49.4,20.5,11.7,13.1,17.6,28.6,17.8,46.4,0,9-1.6,17.7-4.8,26.1-3.8,8.4-10.5,15.9-20.2,22.4,9.9,6.5,17,14.2,21.4,23.2,4.2,9,6.3,18.5,6.3,28.4-.2,22-6.8,39.4-19.8,52.1-12.8,13-29.2,19.6-49.3,19.8-15.5,0-29.2-5.2-41.2-15.5-12-10.3-19.7-25.2-23.3-44.7h32.7c2.9,7.9,7,14.2,12.3,19.1,5.4,5.1,12.6,7.6,21.6,7.6s17.7-3.4,24.2-10.2c6.7-6.4,10.1-15.4,10.3-27.2-.2-12-3.6-21.2-10.3-27.8-6.6-6.4-14.9-9.5-25-9.5h-13.9v-29.6Z"/>
    <path class="st0" d="M681.3,560.4h32.5v99.8c0,11.3,3.1,20.1,9.2,26.5,6,6.4,13.7,9.5,23.1,9.5s17-3.2,23-9.5c6-6.3,9.1-15.2,9.1-26.5v-99.8h32.5v167.4h-32.5v-17.9h-.6c-10.7,13.2-24.7,19.8-42,19.8-13.4-.2-25.5-5.3-36.4-15.1-11.8-9.7-17.7-23.9-17.9-42.8v-111.4Z"/>
    <path class="st0" d="M842.6,659.2c.2-22.7,9.5-40.3,27.8-52.9-7-6.1-12.5-13.2-16.4-21.1-4.6-7.4-6.9-16.2-6.9-26.5.2-19.6,6.6-35.8,19.2-48.6,11.9-12.7,27.2-19.1,46-19.4,19.1.2,34.7,6.7,46.8,19.4,12.2,12.8,18.4,29,18.6,48.5,0,10.2-2.1,19-6.3,26.4-4.4,8-10.1,15-17.1,21.1,18.3,12.6,27.5,30.2,27.8,52.9-.2,21.2-6.9,38.1-20.2,50.8-13.5,13-30,19.6-49.5,19.8-19.4-.2-35.7-6.8-48.8-19.8-13.7-12.7-20.6-29.6-20.8-50.7ZM875.2,658.8c.2,10.8,4,19.6,11.3,26.5,7,7.2,15.6,10.8,25.7,10.8s19.1-3.6,26.2-10.8c7.1-6.9,10.8-15.7,11-26.5-.2-11-3.9-19.9-11-26.8-7-6.8-15.8-10.3-26.2-10.5-10.1.2-18.6,3.7-25.7,10.5-7.4,6.9-11.1,15.8-11.3,26.8ZM879.5,558c.2,10.9,3.6,19.2,10.2,25,6.5,5.9,14,8.9,22.5,8.9s16.4-3,22.9-8.9c6.4-5.7,9.7-14,9.9-25-.2-11.2-3.5-19.7-9.9-25.5-6.5-5.5-14.1-8.3-22.9-8.3s-16,2.8-22.5,8.3c-6.6,5.7-10,14.2-10.2,25.5Z"/>
  </g>
</svg>