<?xml version="1.0" encoding="UTF-8"?>
<svg id="Layer_1" xmlns="http://www.w3.org/2000/svg" version="1.1" viewBox="0 0 1240 1240">
  <!-- Generator: Adobe Illustrator 29.7.1, SVG Export Plug-In . SVG Version: 2.1.1 Build 8)  -->
  <defs>
    <style>
      .st0 {
        fill: #ea1b48;
      }

      .st1 {
        fill: #3d1119;
      }
    </style>
  </defs>
  <rect class="st1" x="120" y="120" width="1000" height="1000" rx="200" ry="200"/>
  <g>
    <path class="st0" d="M193.9,736.1v-234.2h53.9c39.5,0,59.2,22.9,59.2,68.7s-2.1,25.5-6.4,35.2c-4.3,9.7-11.8,17.4-22.5,23.4l36.2,106.9h-35.5l-31.2-100h-20.1v100h-33.5ZM227.5,533.5v73h19.1c5.9,0,10.6-.8,14.1-2.5,3.5-1.6,6.2-4,8.2-7.1,1.8-3.1,3-6.9,3.6-11.3.7-4.5,1-9.7,1-15.6s-.3-11.1-1-15.6c-.7-4.5-2-8.4-3.9-11.7-4.2-6.1-12.1-9.2-23.7-9.2h-17.4Z"/>
    <path class="st0" d="M429.1,665.4h-66.4v22.7c0,5.3,1.5,9.3,4.4,12.2,3,2.9,7,4.3,12,4.3s10.6-1.9,12.7-5.6c2.1-3.7,3.3-7.5,3.8-11.2h33.5c0,14.7-4.5,26.5-13.5,35.5-4.4,4.6-9.7,8.2-15.8,10.9-6.1,2.6-13,3.9-20.7,3.9s-19.5-2.2-26.8-6.6c-7.3-4.4-13-10.2-16.9-17.4-2.4-4.4-4.1-9.4-4.9-15.1-.9-5.7-1.3-11.9-1.3-18.7v-54.9c0-6.8.4-13,1.3-18.7.9-5.7,2.5-10.7,4.9-15.1,3.9-7.2,9.6-13,16.9-17.4,7.3-4.4,16.3-6.6,26.8-6.6s14.6,1.3,20.9,3.9c6.2,2.6,11.6,6.2,16,10.9,8.8,9.9,13.2,22.3,13.2,37.2v46ZM362.7,639.1h32.9v-19.1c0-6.4-1.5-11.1-4.4-14.3-3-3.2-7-4.8-12-4.8s-9,1.6-12,4.8c-3,3.2-4.4,8-4.4,14.3v19.1Z"/>
    <path class="st0" d="M520.6,736.1v-15.1c-2.2,2.4-4.3,4.7-6.2,6.7-2,2.1-4.2,3.9-6.6,5.4-2.4,1.5-5.2,2.7-8.2,3.6-3.1.9-6.7,1.3-10.9,1.3-14,0-23.8-5.3-29.3-15.8-2-3.7-3.4-8.3-4.3-13.8-.9-5.5-1.3-12.8-1.3-22v-63.5c0-12.1.3-20.9,1-26.6,1.3-11,6.5-19.2,15.5-24.7,4.2-2.8,10.4-4.3,18.7-4.3s12.4,1.5,17.6,4.4c5.1,3,9.6,7.2,13.3,12.7h.7v-82.6h33.5v234.2h-33.5ZM487.3,681.8c0,6.8,1.3,12.3,3.9,16.4,2.6,4.2,6.8,6.2,12.5,6.2s9.1-1.9,12.2-5.8c3.1-3.8,4.6-8.8,4.6-15v-64.8c0-5.3-1.6-9.6-4.8-13-3.2-3.4-7.2-5.1-12-5.1s-10.7,2-13,5.9-3.5,8.6-3.5,13.8v61.2Z"/>
    <path class="st0" d="M581.7,736.1v-166.8h33.5v16.1h.7c3.5-5.3,7.7-9.6,12.7-13,4.9-3.4,11.2-5.1,18.9-5.1s13.3,1.8,18.1,5.3c4.8,3.5,8.8,7.3,11.8,11.5,4.2-4.6,8.8-8.6,13.8-11.8,5-3.3,12.1-4.9,21.1-4.9s8.4.7,12.8,2.1c4.4,1.4,8.3,3.8,11.8,7.1,3.5,3.3,6.4,7.5,8.6,12.7,2.2,5.2,3.3,11.5,3.3,18.9v127.9h-33.5v-115.5c0-6.1-1.4-11-4.3-14.5-2.9-3.5-6.9-5.3-12.2-5.3s-10.7,2-13.2,5.9c-2.4,3.9-3.6,9.7-3.6,17.1v112.2h-33.5v-115.5c0-6.1-1.4-11-4.3-14.5-2.9-3.5-6.9-5.3-12.2-5.3s-10.7,2-13.2,5.9c-2.4,3.9-3.6,9.7-3.6,17.1v112.2h-33.5Z"/>
    <path class="st0" d="M776.4,535.5v-33.5h33.5v33.5h-33.5ZM776.4,736.1v-166.8h33.5v166.8h-33.5Z"/>
    <path class="st0" d="M837.6,736.1v-166.8h33.5v16.1h.7c3.5-5.3,7.7-9.6,12.7-13,4.9-3.4,11.2-5.1,18.9-5.1s8.3.7,12.5,2.1c4.2,1.4,7.9,3.8,11.2,7.1s5.9,7.5,7.9,12.7c2,5.2,3,11.5,3,18.9v127.9h-33.5v-115.5c0-6.1-1.4-11-4.3-14.5-2.9-3.5-6.9-5.3-12.2-5.3s-10.7,2-13.2,5.9c-2.4,3.9-3.6,9.7-3.6,17.1v112.2h-33.5Z"/>
    <path class="st0" d="M1062.6,665.4h-66.4v22.7c0,5.3,1.5,9.3,4.4,12.2,3,2.9,7,4.3,12,4.3s10.6-1.9,12.7-5.6c2.1-3.7,3.3-7.5,3.8-11.2h33.5c0,14.7-4.5,26.5-13.5,35.5-4.4,4.6-9.7,8.2-15.8,10.9-6.1,2.6-13,3.9-20.7,3.9s-19.5-2.2-26.8-6.6c-7.3-4.4-13-10.2-16.9-17.4-2.4-4.4-4.1-9.4-4.9-15.1-.9-5.7-1.3-11.9-1.3-18.7v-54.9c0-6.8.4-13,1.3-18.7.9-5.7,2.5-10.7,4.9-15.1,3.9-7.2,9.6-13,16.9-17.4,7.3-4.4,16.3-6.6,26.8-6.6s14.6,1.3,20.9,3.9c6.2,2.6,11.6,6.2,16,10.9,8.8,9.9,13.2,22.3,13.2,37.2v46ZM996.2,639.1h32.9v-19.1c0-6.4-1.5-11.1-4.4-14.3-3-3.2-7-4.8-12-4.8s-9,1.6-12,4.8c-3,3.2-4.4,8-4.4,14.3v19.1Z"/>
  </g>
</svg>